<mxfile host="app.diagrams.net" modified="2024-05-24T11:07:49.704Z" agent="Mozilla/5.0 (Windows NT 10.0; Win64; x64) AppleWebKit/537.36 (KHTML, like Gecko) Chrome/125.0.0.0 Safari/537.36 Edg/125.0.0.0" version="24.4.2" etag="nwxb75PicjPOh2pnVtcb" type="github">
  <diagram name="Pagina-1" id="hafhbiz2EvBAN4gTMage">
    <mxGraphModel>
      <root>
        <mxCell id="0" />
        <mxCell id="1" parent="0" />
      </root>
    </mxGraphModel>
  </diagram>
</mxfile>
